<svg width="745" height="748" viewBox="0 0 745 748" fill="none" xmlns="http://www.w3.org/2000/svg">
<g clip-path="url(#clip0)">
<path d="M70.6597 629.593L72.6266 629.416L74.0555 608.611C89.9738 616.144 105.748 625.618 118.353 637.318L118.353 637.318C139.34 656.797 155.125 677.83 163.697 696.056C167.985 705.171 170.445 713.537 170.882 720.626C171.319 727.711 169.732 733.427 166.04 737.405C162.348 741.382 156.766 743.39 149.668 743.481C142.566 743.573 134.04 741.741 124.631 738.143C105.817 730.95 83.6681 716.773 62.6807 697.292C58.9861 693.839 55.4891 690.181 52.2058 686.336L76.6307 682.814L76.661 680.839L43.3278 674.984C29.0403 655.092 18.4662 632.178 11.451 614.178C7.9258 605.133 5.30324 597.34 3.56252 591.809C2.69222 589.044 2.04252 586.845 1.6108 585.339C1.53084 585.06 1.45836 584.805 1.39334 584.574C1.46985 584.59 1.54903 584.606 1.63084 584.623C2.81693 584.866 4.55656 585.235 6.76515 585.737C11.0734 586.718 17.1649 588.208 24.4121 590.268L27.6287 602.957L29.5956 602.78L30.3378 592.003C41.8429 595.459 53.1539 599.531 64.2218 604.202L70.6597 629.593Z" fill="black" stroke="white" stroke-width="2"/>
<path d="M133.058 600.954L134.834 601.819L146.81 584.753C156.543 599.429 165.151 615.693 169.893 632.224C177.789 659.749 180.429 685.914 178.346 705.948C177.304 715.968 175.087 724.401 171.796 730.695C168.507 736.986 164.194 741.059 158.978 742.556C153.762 744.052 147.946 742.885 141.822 739.294C135.695 735.702 129.344 729.727 123.149 721.783C110.762 705.901 99.1297 682.317 91.233 654.793C89.854 649.925 88.7501 644.985 87.9262 639.994L110.66 649.605L111.706 647.93L86.198 625.688C84.2512 601.275 87.0435 576.194 90.3418 557.159C91.9993 547.594 93.7825 539.566 95.1509 533.932C95.8351 531.115 96.4154 528.897 96.8242 527.385C96.8999 527.104 96.9697 526.849 97.0333 526.618C97.0907 526.67 97.1501 526.725 97.2114 526.782C98.1013 527.603 99.3999 528.817 101.031 530.389C104.212 533.455 108.657 537.878 113.797 543.385L109.992 555.91L111.768 556.776L117.973 547.934C126.035 556.839 133.612 566.172 140.672 575.892L133.058 600.954Z" fill="black" stroke="white" stroke-width="2"/>
<path d="M521.251 176.983L521.251 175.483H519.751H517.159V64.883C517.159 56.1655 515.442 47.5333 512.106 39.4793C508.77 31.4254 503.88 24.1074 497.716 17.9431C491.552 11.7789 484.234 6.88916 476.18 3.5531C468.126 0.217042 459.494 -1.5 450.776 -1.5H213.269C195.663 -1.5 178.778 5.4939 166.329 17.9431C153.88 30.3924 146.886 47.2771 146.886 64.883V679.883C146.886 688.601 148.603 697.233 151.939 705.287C155.275 713.341 160.165 720.659 166.329 726.823C172.493 732.987 179.811 737.877 187.865 741.213C195.919 744.549 204.551 746.266 213.269 746.266H450.776C468.382 746.266 485.266 739.272 497.715 726.823C510.164 714.373 517.158 697.489 517.158 679.883V258.278H519.75H521.25L521.25 256.778L521.251 176.983Z" fill="white" stroke="black" stroke-width="3"/>
<path d="M453.394 16.874H422.394C423.82 20.3696 424.364 24.1622 423.979 27.9177C423.593 31.6731 422.29 35.2762 420.184 38.4094C418.078 41.5426 415.234 44.1098 411.902 45.8848C408.57 47.6598 404.853 48.5882 401.078 48.588H265.013C261.238 48.5878 257.521 47.6593 254.189 45.8841C250.858 44.109 248.014 41.5418 245.908 38.4086C243.802 35.2754 242.499 31.6725 242.114 27.9172C241.729 24.1619 242.273 20.3695 243.699 16.874H214.743C201.892 16.874 189.568 21.979 180.481 31.0659C171.394 40.1528 166.289 52.4772 166.289 65.328V679.435C166.289 692.286 171.394 704.61 180.481 713.697C189.568 722.784 201.892 727.889 214.743 727.889H453.394C466.245 727.889 478.569 722.784 487.656 713.697C496.743 704.61 501.848 692.286 501.848 679.435V65.327C501.848 52.4764 496.743 40.1522 487.656 31.0655C478.569 21.9788 466.245 16.874 453.394 16.874Z" fill="black"/>
<path d="M303.658 261.503C303.657 257.21 304.787 252.993 306.934 249.276C309.081 245.559 312.169 242.473 315.888 240.329C312.171 238.182 307.955 237.052 303.663 237.052C299.37 237.051 295.154 238.18 291.436 240.326C287.719 242.472 284.632 245.559 282.486 249.276C280.34 252.993 279.21 257.209 279.21 261.502C279.21 265.794 280.34 270.01 282.486 273.727C284.632 277.444 287.719 280.531 291.436 282.677C295.154 284.823 299.37 285.952 303.663 285.952C307.955 285.951 312.171 284.821 315.888 282.674C312.17 280.53 309.081 277.445 306.934 273.728C304.788 270.012 303.657 265.795 303.658 261.503Z" fill="white"/>
<path d="M334.395 261.503C334.394 257.21 335.524 252.993 337.671 249.276C339.818 245.559 342.906 242.473 346.625 240.329C342.908 238.182 338.692 237.052 334.4 237.052C330.107 237.051 325.891 238.18 322.173 240.326C318.456 242.472 315.369 245.559 313.223 249.276C311.077 252.993 309.947 257.209 309.947 261.502C309.947 265.794 311.077 270.01 313.223 273.727C315.369 277.444 318.456 280.531 322.173 282.677C325.891 284.823 330.107 285.952 334.4 285.952C338.692 285.951 342.908 284.821 346.625 282.674C342.907 280.53 339.818 277.445 337.671 273.728C335.524 270.012 334.394 265.795 334.395 261.503Z" fill="white"/>
<path d="M364.434 285.952C377.937 285.952 388.884 275.005 388.884 261.502C388.884 247.999 377.937 237.052 364.434 237.052C350.931 237.052 339.984 247.999 339.984 261.502C339.984 275.005 350.931 285.952 364.434 285.952Z" fill="#7BFED0"/>
<path d="M405.296 337.869H262.796C261.439 337.867 260.139 337.328 259.179 336.369C258.22 335.409 257.681 334.109 257.679 332.752V190.252C257.681 188.895 258.22 187.595 259.179 186.635C260.139 185.676 261.439 185.137 262.796 185.135H405.296C406.653 185.137 407.953 185.676 408.912 186.635C409.872 187.595 410.411 188.895 410.413 190.252V332.752C410.411 334.109 409.872 335.409 408.912 336.369C407.953 337.328 406.653 337.867 405.296 337.869ZM262.796 187.183C261.982 187.184 261.202 187.508 260.626 188.083C260.05 188.659 259.727 189.439 259.726 190.253V332.753C259.727 333.567 260.05 334.347 260.626 334.923C261.202 335.499 261.982 335.822 262.796 335.823H405.296C406.11 335.822 406.89 335.499 407.466 334.923C408.041 334.347 408.365 333.567 408.366 332.753V190.253C408.365 189.439 408.041 188.659 407.466 188.083C406.89 187.508 406.11 187.184 405.296 187.183H262.796Z" fill="white"/>
<path d="M437.114 447.102H218.562V449.149H437.114V447.102Z" fill="white"/>
<path d="M225.464 434.322C229.276 434.322 232.366 431.232 232.366 427.42C232.366 423.608 229.276 420.518 225.464 420.518C221.652 420.518 218.562 423.608 218.562 427.42C218.562 431.232 221.652 434.322 225.464 434.322Z" fill="#7BFED0"/>
<path d="M437.114 516.118H218.562V518.165H437.114V516.118Z" fill="white"/>
<path d="M225.464 503.339C229.276 503.339 232.366 500.249 232.366 496.437C232.366 492.625 229.276 489.535 225.464 489.535C221.652 489.535 218.562 492.625 218.562 496.437C218.562 500.249 221.652 503.339 225.464 503.339Z" fill="#7BFED0"/>
<path d="M433.115 594.71H364.046C362.853 594.709 361.709 594.235 360.866 593.391C360.022 592.547 359.547 591.404 359.546 590.21V566.002C359.547 564.809 360.022 563.666 360.866 562.822C361.709 561.978 362.853 561.504 364.046 561.502H433.115C434.308 561.504 435.451 561.978 436.295 562.822C437.139 563.666 437.613 564.809 437.615 566.002V590.21C437.613 591.404 437.139 592.547 436.295 593.391C435.451 594.235 434.308 594.709 433.115 594.71Z" fill="#7BFED0"/>
<path d="M247.978 434.322C251.79 434.322 254.88 431.232 254.88 427.42C254.88 423.608 251.79 420.518 247.978 420.518C244.166 420.518 241.076 423.608 241.076 427.42C241.076 431.232 244.166 434.322 247.978 434.322Z" fill="#7BFED0"/>
<path d="M270.492 434.322C274.304 434.322 277.394 431.232 277.394 427.42C277.394 423.608 274.304 420.518 270.492 420.518C266.68 420.518 263.59 423.608 263.59 427.42C263.59 431.232 266.68 434.322 270.492 434.322Z" fill="#7BFED0"/>
<path d="M247.978 503.339C251.79 503.339 254.88 500.249 254.88 496.437C254.88 492.625 251.79 489.535 247.978 489.535C244.166 489.535 241.076 492.625 241.076 496.437C241.076 500.249 244.166 503.339 247.978 503.339Z" fill="#7BFED0"/>
<path d="M270.492 503.339C274.304 503.339 277.394 500.249 277.394 496.437C277.394 492.625 274.304 489.535 270.492 489.535C266.68 489.535 263.59 492.625 263.59 496.437C263.59 500.249 266.68 503.339 270.492 503.339Z" fill="#7BFED0"/>
<path d="M742.066 747.077H24.08C22.543 747.077 21.298 746.531 21.298 745.859C21.298 745.187 22.543 744.64 24.08 744.64H742.066C743.602 744.64 744.848 745.186 744.848 745.859C744.848 746.532 743.602 747.077 742.066 747.077Z" fill="white"/>
<path d="M564.677 489.461C565.167 489.686 565.639 489.949 566.087 490.249L610.94 471.105L612.541 459.29L630.462 459.181L629.403 486.279L570.204 501.935C570.079 502.346 569.93 502.75 569.756 503.143C568.9 504.969 567.524 506.502 565.8 507.549C564.076 508.595 562.081 509.109 560.065 509.026C558.05 508.942 556.105 508.265 554.473 507.08C552.841 505.894 551.596 504.253 550.894 502.362C550.192 500.471 550.064 498.415 550.527 496.452C550.99 494.489 552.022 492.706 553.495 491.328C554.967 489.95 556.814 489.037 558.804 488.705C560.793 488.373 562.836 488.636 564.677 489.461Z" fill="white"/>
<path d="M636.98 735.021H624.72L618.888 687.733L636.982 687.734L636.98 735.021Z" fill="white"/>
<path d="M615.963 732.518H638.607V745.405H602.112C602.351 742.087 603.776 738.953 606.143 736.585C608.748 733.981 612.28 732.518 615.963 732.518Z" fill="black" stroke="white" stroke-width="2"/>
<path d="M684.66 731.557L672.459 732.759L662.018 686.271L680.025 684.497L684.66 731.557Z" fill="white"/>
<path d="M663.499 731.126L686.034 728.907L687.297 741.732L650.978 745.309C650.94 743.824 651.139 742.341 651.572 740.915C652.101 739.17 652.969 737.546 654.126 736.137C655.283 734.727 656.706 733.559 658.314 732.699C659.923 731.839 661.684 731.305 663.499 731.126Z" fill="black" stroke="white" stroke-width="2"/>
<path d="M640.393 409.135C653.957 409.135 664.954 398.138 664.954 384.574C664.954 371.009 653.957 360.013 640.393 360.013C626.828 360.013 615.832 371.009 615.832 384.574C615.832 398.138 626.828 409.135 640.393 409.135Z" fill="white"/>
<path d="M622.073 724H622.076C622.181 724 622.286 723.995 622.389 723.986L622.073 724ZM622.073 724C621.298 724.002 620.541 723.719 619.936 723.191C619.33 722.662 618.916 721.919 618.776 721.091L618.776 721.086C612.616 685.421 592.498 568.899 592.005 565.604C592.001 565.58 592 565.555 592 565.531H592V565.524L592 556.829L592 556.826C592 556.71 592.035 556.6 592.095 556.513L592.096 556.511L594.756 552.625L594.756 552.625L594.759 552.62C594.801 552.558 594.854 552.51 594.911 552.478C594.967 552.446 595.027 552.429 595.087 552.426L595.087 552.426L595.09 552.426C602.669 552.056 618.863 551.328 633.457 551.083C640.757 550.96 647.639 550.959 652.839 551.182C655.443 551.293 657.598 551.46 659.164 551.691C659.95 551.807 660.556 551.935 660.984 552.068C661.198 552.135 661.344 552.196 661.435 552.244C661.466 552.26 661.485 552.273 661.497 552.28C661.943 552.881 662.297 553.866 662.54 555.157C662.782 556.447 662.893 557.93 662.924 559.404C662.987 562.351 662.73 565.153 662.634 566.075L662.626 566.15L662.63 566.227L662.639 566.422L662.642 566.473L662.649 566.522L684.96 715.345C684.96 715.346 684.96 715.346 684.96 715.346C685.098 716.286 684.875 717.24 684.347 718.001C683.82 718.76 683.037 719.262 682.173 719.413C682.173 719.413 682.172 719.413 682.171 719.413L668.243 721.807C668.242 721.807 668.242 721.807 668.241 721.807C667.452 721.939 666.64 721.772 665.952 721.33C665.263 720.888 664.739 720.196 664.487 719.373C660.174 704.999 645.729 656.695 640.725 638.015C640.634 637.673 640.424 637.367 640.123 637.161C639.819 636.953 639.447 636.864 639.078 636.919C638.71 636.973 638.382 637.164 638.152 637.444L638.924 638.079L638.152 637.444C637.923 637.723 637.803 638.072 637.807 638.426L637.807 638.428C638.058 656.253 638.663 701.73 638.871 717.437L638.871 717.437L638.894 719.123C638.894 719.124 638.894 719.125 638.894 719.126C638.9 720.032 638.581 720.902 638.008 721.564C637.436 722.225 636.656 722.63 635.825 722.712C635.824 722.712 635.824 722.713 635.823 722.713L622.39 723.986L622.073 724Z" fill="black" stroke="white" stroke-width="2"/>
<path d="M668.488 499.777L664.225 557.751C663.552 556.744 662.619 555.694 661.336 554.816C657.398 552.12 650.612 551.318 639.065 557.145C627.626 562.917 619.666 566.485 612.494 566.949C605.575 567.396 599.257 564.95 591.133 558.312L610.511 486.039L610.538 485.94L610.544 485.837L612.123 458.341L612.123 458.341C612.645 449.24 614.295 440.236 617.036 431.526L617.036 431.526C618.481 426.934 620.941 422.589 624.909 420.214L628.215 419.429L628.22 419.428C635.48 417.66 643.053 417.532 650.371 419.054C657.688 420.576 664.556 423.708 670.459 428.213L670.464 428.217C672.11 429.454 673.618 430.857 674.964 432.402L668.489 499.755L668.488 499.766L668.488 499.777Z" fill="black" stroke="white" stroke-width="2"/>
<path d="M618.551 504.239C619.069 504.434 619.57 504.669 620.051 504.943L664.4 482.746L665.136 470.72L683.429 469.459L684.41 496.872L625.144 516.471C624.66 518.547 623.556 520.426 621.978 521.858C620.4 523.291 618.423 524.209 616.311 524.491C614.198 524.773 612.05 524.405 610.151 523.437C608.253 522.468 606.695 520.944 605.683 519.068C604.672 517.192 604.256 515.052 604.49 512.934C604.724 510.815 605.598 508.819 606.995 507.209C608.392 505.599 610.246 504.453 612.31 503.922C614.374 503.392 616.551 503.502 618.551 504.239Z" fill="white"/>
<path d="M674.857 432.893L674.857 432.893C675.959 433.282 677.034 434.183 678.065 435.602C679.092 437.015 680.025 438.874 680.865 441.055C682.544 445.416 683.794 450.917 684.712 456.348C685.629 461.769 686.207 467.077 686.556 471.032C686.731 473.009 686.848 474.646 686.921 475.788C686.923 475.816 686.925 475.844 686.927 475.871C680.587 473.107 673.885 474.294 668.744 476.184C665.944 477.213 663.562 478.467 661.88 479.461C661.279 479.817 660.766 480.14 660.354 480.41C660.301 480.228 660.243 480.029 660.18 479.813C659.82 478.57 659.299 476.766 658.657 474.521C657.374 470.031 655.61 463.777 653.686 456.722L653.684 456.713L653.681 456.704C652.566 452.894 652.432 448.864 653.293 444.988C654.15 441.135 655.961 437.56 658.561 434.591C658.564 434.588 658.567 434.585 658.571 434.583C658.61 434.55 658.674 434.498 658.76 434.432C658.934 434.299 659.202 434.106 659.559 433.884C660.274 433.438 661.344 432.873 662.74 432.42C665.518 431.519 669.625 431.045 674.857 432.893Z" fill="black" stroke="white" stroke-width="2"/>
<path d="M617.461 373.41C617.267 373.715 617.089 374.024 616.927 374.332C616.79 371.43 616.817 368.521 617.006 365.619C617.272 363.311 619.112 360.788 622.834 358.331C626.536 355.888 631.931 353.628 638.907 351.808C645.482 350.093 650.493 352.92 653.945 356.298C655.672 357.989 656.983 359.797 657.864 361.187C658.303 361.881 658.632 362.467 658.851 362.876C658.96 363.08 659.041 363.24 659.094 363.347C659.12 363.401 659.14 363.441 659.152 363.467L659.165 363.495L659.168 363.501L659.168 363.501L659.168 363.501L659.315 363.819L659.629 363.976C661.726 365.024 663.166 367.233 664.046 370.153C664.921 373.057 665.192 376.514 665.066 379.791C664.941 383.069 664.421 386.09 663.767 388.109C663.433 389.137 663.097 389.804 662.828 390.128C660.846 388.714 658.623 389.453 657.158 390.281C656.719 390.53 656.316 390.802 655.963 391.065L653.726 370.927L653.614 369.924L652.613 370.044L652.613 370.044L652.613 370.044L652.611 370.045L652.604 370.045L652.572 370.049L652.446 370.063C652.334 370.076 652.168 370.094 651.952 370.117C651.52 370.161 650.891 370.223 650.104 370.289C648.53 370.421 646.33 370.573 643.827 370.649C638.797 370.801 632.638 370.643 627.88 369.455C625.238 368.796 623.067 369.048 621.311 369.877C619.571 370.698 618.333 372.04 617.461 373.41Z" fill="black" stroke="white" stroke-width="2"/>
</g>
<defs>
<clipPath id="clip0">
<rect width="744.848" height="747.077" fill="white"/>
</clipPath>
</defs>
</svg>
