<svg width="1037" height="754" viewBox="0 0 1037 754" fill="none" xmlns="http://www.w3.org/2000/svg">
<path d="M444.429 705.15C638.809 705.15 796.386 547.297 796.386 352.575C796.386 157.853 638.809 0 444.429 0C250.048 0 92.4713 157.853 92.4713 352.575C92.4713 547.297 250.048 705.15 444.429 705.15Z" fill="#2B2933" fill-opacity="0.6"/>
<path d="M139.651 754C216.777 754 279.301 743.979 279.301 731.617C279.301 719.255 216.777 709.233 139.651 709.233C62.5237 709.233 0 719.255 0 731.617C0 743.979 62.5237 754 139.651 754Z" fill="#7BFED0"/>
<path d="M820.919 731.247C940.257 731.247 1037 715.741 1037 696.613C1037 677.486 940.257 661.98 820.919 661.98C701.581 661.98 604.838 677.486 604.838 696.613C604.838 715.741 701.581 731.247 820.919 731.247Z" fill="#7BFED0"/>
<path d="M772.91 363.714C772.91 363.714 774.749 369.857 764.325 375.386C753.9 380.914 750.834 401.8 763.098 407.943C775.363 414.086 779.042 422.072 772.91 427.6C766.778 433.129 755.74 447.872 770.457 451.558C785.174 455.243 787.014 462.615 782.721 465.686C778.429 468.758 792.533 460.158 792.533 460.158C792.533 460.158 794.985 474.901 807.863 471.215C820.74 467.529 856.92 397.5 838.524 387.671C820.127 377.843 772.91 363.714 772.91 363.714Z" fill="#2F2E41"/>
<path d="M795.136 423.03C795.136 423.03 801.497 445.332 790.365 446.925C783.457 448.004 776.911 450.736 771.282 454.89L791.955 481.972H830.121L853.974 458.076C853.974 458.076 822.169 434.181 828.53 419.844C834.891 405.507 795.136 423.03 795.136 423.03Z" fill="white"/>
<path d="M804.677 700.215L841.252 712.958L866.695 714.551L865.105 692.249L812.628 676.702L804.677 700.215Z" fill="white"/>
<path d="M852.589 695.435C852.589 695.435 852.589 695.435 851.589 695.435H852.589V686.696C852.842 686.645 853.152 686.582 853.514 686.509C854.621 686.284 856.213 685.961 858.153 685.562C862.034 684.765 867.31 683.669 872.89 682.474C884.019 680.089 896.449 677.29 901.367 675.676C903.505 674.974 906.056 675.211 908.918 676.217C911.774 677.221 914.845 678.959 917.955 681.122C924.174 685.449 930.398 691.369 935.163 696.142C937.281 698.264 937.81 700.792 937.23 703.408C936.639 706.071 934.884 708.843 932.394 711.242C927.365 716.086 919.808 718.998 913.959 716.801C910.614 715.544 905.401 714.946 899.532 714.722C893.628 714.496 886.937 714.647 880.563 714.946C874.186 715.246 868.111 715.695 863.436 716.068C861.979 716.185 860.668 716.293 859.529 716.387C857.122 716.585 855.484 716.72 854.872 716.736C854.814 716.675 854.724 716.552 854.614 716.332C854.366 715.836 854.126 715.062 853.908 714.043C853.476 712.023 853.182 709.291 852.984 706.515C852.786 703.749 852.688 700.978 852.638 698.896C852.613 697.856 852.601 696.989 852.595 696.383C852.592 696.08 852.59 695.842 852.589 695.681L852.589 695.497L852.589 695.45L852.589 695.439L852.589 695.436L852.589 695.435Z" fill="black" stroke="white" stroke-width="2"/>
<path d="M734.816 676.802C734.963 676.492 735.092 676.222 735.201 675.996L786.178 696.113C786.172 696.536 786.16 697.134 786.135 697.84C786.086 699.271 785.988 701.135 785.793 702.892C785.594 704.683 785.307 706.243 784.923 707.139C784.851 707.308 784.787 707.423 784.739 707.499C784.73 707.491 784.721 707.482 784.712 707.473C784.076 706.835 783.104 706.549 782.133 706.414C781.121 706.273 779.908 706.271 778.594 706.36C775.962 706.539 772.775 707.099 769.67 707.801C766.56 708.505 763.499 709.359 761.107 710.141C759.913 710.531 758.873 710.908 758.073 711.242C757.673 711.409 757.32 711.571 757.032 711.724C756.768 711.864 756.474 712.04 756.263 712.252C756.191 712.323 755.926 712.512 755.368 712.784C754.842 713.04 754.14 713.331 753.283 713.633C751.571 714.237 749.286 714.871 746.65 715.36C741.368 716.34 734.764 716.721 728.589 715.174C727.296 714.85 726.429 714.104 725.856 712.992C725.263 711.84 724.973 710.264 724.973 708.328C724.973 704.456 726.126 699.499 727.709 694.545C729.285 689.611 731.258 684.767 732.84 681.15C733.631 679.344 734.323 677.847 734.816 676.802ZM784.884 707.615C784.884 707.615 784.879 707.614 784.87 707.608C784.879 707.611 784.884 707.614 784.884 707.615Z" fill="black" stroke="white" stroke-width="2"/>
<path d="M750.61 622.156C750.61 622.156 720.395 663.575 742.658 674.726C764.922 685.877 871.466 685.877 879.417 674.726C887.368 663.575 890.549 628.529 879.417 625.343C868.286 622.156 750.61 622.156 750.61 622.156Z" fill="#2E2E2E"/>
<path d="M807.857 434.181C828.057 434.181 844.433 417.777 844.433 397.542C844.433 377.307 828.057 360.903 807.857 360.903C787.658 360.903 771.282 377.307 771.282 397.542C771.282 417.777 787.658 434.181 807.857 434.181Z" fill="white"/>
<path d="M733.117 496.309C733.117 496.309 723.576 580.738 729.937 587.11C736.297 593.482 761.741 611.005 761.741 611.005V591.889L749.019 567.994L761.741 512.239L733.117 496.309Z" fill="white"/>
<path d="M897.705 493.919C897.705 493.919 892.139 580.738 892.139 583.924C892.139 587.11 877.827 598.261 873.056 598.261C868.286 598.261 865.105 590.296 865.105 590.296L876.237 577.552L868.286 512.239L897.705 493.919Z" fill="white"/>
<path d="M871.466 634.901L872.029 635.727L872.216 635.6L872.33 635.404L883.322 616.527C883.454 616.455 883.64 616.354 883.875 616.228C884.395 615.948 885.16 615.542 886.134 615.04C888.084 614.034 890.872 612.64 894.223 611.092C900.932 607.992 909.872 604.283 918.842 601.814C927.851 599.335 936.725 598.155 943.387 599.949C946.69 600.838 949.409 602.447 951.358 604.963C953.309 607.481 954.556 610.998 954.749 615.824C955.529 635.371 946.566 649.049 937.365 657.875C932.761 662.291 928.105 665.482 924.6 667.569C922.848 668.612 921.387 669.378 920.367 669.881C919.857 670.132 919.458 670.318 919.189 670.44C919.054 670.501 918.951 670.546 918.884 670.576C918.864 670.585 918.846 670.592 918.833 670.598L918.815 670.603L918.604 670.666C918.418 670.722 918.141 670.804 917.78 670.911C917.059 671.125 915.999 671.437 914.649 671.831C911.948 672.619 908.084 673.733 903.436 675.035C894.137 677.641 881.701 681.001 869.145 684.023C856.581 687.046 843.927 689.723 834.18 690.97C829.299 691.594 825.201 691.853 822.226 691.634C820.734 691.524 819.587 691.298 818.783 690.976C817.974 690.65 817.653 690.287 817.542 689.986C816.951 688.377 816.28 686.638 815.585 684.836C813.909 680.495 812.091 675.783 810.906 671.624C810.067 668.677 809.584 666.127 809.664 664.26C809.704 663.33 809.88 662.654 810.15 662.195C810.4 661.77 810.75 661.492 811.281 661.359C812.528 661.047 813.79 660.688 815.048 660.33C817.127 659.74 819.194 659.152 821.161 658.783C822.712 658.492 824.097 658.361 825.254 658.472C826.405 658.583 827.246 658.925 827.823 659.502C828.33 660.011 829.041 660.079 829.587 660.051C830.175 660.022 830.857 659.867 831.587 659.638C833.056 659.178 834.927 658.353 837.029 657.3C841.243 655.189 846.541 652.084 851.716 648.894C856.896 645.701 861.973 642.409 865.755 639.917C867.646 638.671 869.214 637.624 870.309 636.888C870.857 636.52 871.287 636.23 871.579 636.032C871.726 635.933 871.838 635.857 871.914 635.805L872 635.747L872.022 635.732L872.027 635.728L872.029 635.727C872.029 635.727 872.029 635.727 871.466 634.901Z" fill="white" stroke="black" stroke-width="2"/>
<path opacity="0.2" d="M915.993 611.005C915.993 611.005 901.681 617.377 896.91 622.156C892.139 626.936 871.466 634.901 871.466 634.901" stroke="black" stroke-width="2" stroke-miterlimit="10"/>
<path d="M765.394 520.666C765.03 520.623 764.596 520.57 764.105 520.507C762.576 520.309 760.507 520.013 758.342 519.618C756.173 519.223 753.931 518.734 752.047 518.153C751.105 517.863 750.271 517.555 749.589 517.233C748.894 516.906 748.416 516.592 748.137 516.311C746.717 514.889 744.702 513.473 742.084 511.634C741.625 511.312 741.148 510.977 740.652 510.626C737.287 508.247 732.941 505.08 727.408 500.329C725.149 498.39 725.028 494.914 726.728 490.175C728.396 485.526 731.662 480.14 735.324 474.984C738.976 469.842 742.979 464.99 746.073 461.419C747.619 459.635 748.936 458.174 749.865 457.159C750.3 456.684 750.65 456.308 750.899 456.041L759.22 458.82L765.394 520.666Z" fill="black" stroke="white" stroke-width="2"/>
<path d="M855.18 505.759L876.747 467.179L889.852 470.097C889.926 470.255 890.019 470.453 890.129 470.686C890.44 471.347 890.888 472.295 891.436 473.442C892.53 475.735 894.024 478.827 895.618 482.02C897.21 485.211 898.907 488.511 900.408 491.218C901.159 492.571 901.865 493.785 902.489 494.766C903.099 495.728 903.671 496.532 904.153 497.015C904.324 497.186 904.437 497.321 904.509 497.424C904.421 497.477 904.289 497.548 904.094 497.634C903.757 497.783 903.339 497.935 902.821 498.124L902.73 498.157C900.532 498.957 897.096 500.232 894.519 503.674C893.518 505.012 892.516 506.556 891.495 508.13C891.274 508.47 891.052 508.812 890.83 509.153C889.565 511.092 888.25 513.041 886.799 514.785C883.888 518.283 880.565 520.797 876.237 520.797C874.111 520.797 871.71 519.901 869.241 518.446C866.787 517 864.359 515.058 862.201 513.092C860.046 511.13 858.181 509.164 856.855 507.687C856.192 506.95 855.665 506.336 855.304 505.907C855.26 505.855 855.219 505.806 855.18 505.759Z" fill="black" stroke="white" stroke-width="2"/>
<path d="M866.695 521.797L865.801 521.35L865.687 521.579L865.696 521.834L868.837 606.791L753.295 603.663L761.146 520.298L761.158 520.178L761.14 520.059L751.736 455.685L781.759 449.669C781.794 449.762 781.832 449.861 781.873 449.966C782.149 450.678 782.571 451.682 783.157 452.869C784.328 455.24 786.164 458.359 788.825 461.332C794.172 467.307 802.855 472.678 815.993 470.21C828.91 467.784 837.037 462.514 841.944 457.802C844.394 455.45 846.034 453.245 847.066 451.617C847.531 450.884 847.872 450.268 848.109 449.808C848.631 450.024 849.363 450.327 850.239 450.688C852.054 451.435 854.492 452.432 856.981 453.429C859.468 454.426 862.012 455.425 864.037 456.176C865.048 456.552 865.939 456.868 866.633 457.093C866.98 457.205 867.288 457.297 867.543 457.362C867.765 457.42 868.045 457.483 868.286 457.483C868.279 457.483 868.275 457.483 868.275 457.484C868.275 457.485 868.354 457.494 868.556 457.544C868.767 457.597 869.049 457.678 869.397 457.788C870.091 458.008 871.011 458.331 872.08 458.737C874.218 459.55 876.924 460.684 879.579 461.964C882.242 463.248 884.815 464.662 886.708 466.03C887.657 466.716 888.398 467.364 888.892 467.952C889.404 468.559 889.549 468.98 889.549 469.227C889.549 469.374 889.493 469.724 889.319 470.331C889.154 470.909 888.908 471.641 888.586 472.512C887.943 474.25 887.02 476.49 885.904 479.059C883.675 484.196 880.699 490.606 877.719 496.875C874.74 503.142 871.76 509.261 869.525 513.814C868.407 516.09 867.476 517.975 866.824 519.29C866.499 519.947 866.243 520.463 866.068 520.814L865.869 521.214L865.818 521.316L865.805 521.342L865.802 521.348L865.801 521.35C865.801 521.35 865.801 521.35 866.695 521.797Z" fill="black" stroke="white" stroke-width="2"/>
<path d="M807.545 711.066C807.462 711.272 807.386 711.459 807.319 711.626C806.92 711.45 806.401 711.222 805.774 710.947C804.182 710.249 801.894 709.253 799.108 708.057C793.538 705.665 785.976 702.476 778.015 699.286C777.691 699.156 777.329 699.011 776.93 698.852C767.514 695.089 737.626 683.145 711.951 668.285C698.557 660.532 686.397 652.035 678.879 643.547C675.121 639.304 672.58 635.127 671.581 631.106C670.592 627.125 671.101 623.255 673.528 619.515C678.485 611.875 685.808 608.706 694.134 608.27C702.505 607.833 711.844 610.169 720.634 613.532C729.41 616.891 737.557 621.242 743.517 624.76C746.495 626.518 748.922 628.065 750.603 629.171C751.444 629.724 752.098 630.167 752.54 630.471C752.762 630.623 752.93 630.74 753.043 630.819C753.065 630.834 753.084 630.848 753.102 630.86C753.13 630.88 753.152 630.895 753.17 630.908L753.201 630.93L753.201 630.93L753.208 630.935L753.218 630.942L753.282 630.99L753.535 631.177C753.756 631.341 754.082 631.582 754.498 631.892C755.329 632.51 756.52 633.399 757.96 634.48C760.84 636.644 764.711 639.578 768.681 642.66C772.653 645.743 776.716 648.97 779.981 651.72C781.614 653.096 783.039 654.345 784.15 655.394C785.283 656.463 786.025 657.265 786.352 657.757C787.288 659.164 788.961 660.354 790.842 661.348C792.751 662.355 794.998 663.223 797.217 663.93C799.441 664.639 801.663 665.195 803.534 665.575C805.382 665.951 806.956 666.168 807.857 666.168C809.458 666.168 812.919 666.172 815.963 666.934C817.487 667.316 818.816 667.867 819.747 668.629C820.642 669.363 821.169 670.288 821.169 671.54C821.169 672.202 820.975 673.342 820.584 674.907C820.2 676.445 819.649 678.314 818.981 680.394C817.646 684.554 815.864 689.515 814.077 694.288C812.291 699.059 810.504 703.633 809.164 707.014C808.494 708.705 807.936 710.097 807.545 711.066Z" fill="white" stroke="black" stroke-width="2"/>
<path opacity="0.2" d="M720.395 618.97C720.395 618.97 736.297 631.715 750.609 634.901C764.921 638.087 769.692 646.052 769.692 646.052" stroke="black" stroke-width="2" stroke-miterlimit="10"/>
<path d="M742.82 559.074L744.091 626.523C744.133 628.75 745.052 630.871 746.648 632.423C748.245 633.975 750.389 634.831 752.613 634.806L877.911 633.396C880.046 633.372 882.092 632.537 883.637 631.06C885.181 629.584 886.108 627.575 886.231 625.439L890.035 559.401C890.101 558.253 889.932 557.104 889.539 556.023C889.146 554.943 888.537 553.955 887.749 553.119C886.961 552.282 886.011 551.616 884.957 551.161C883.903 550.706 882.767 550.471 881.62 550.471H751.248C750.127 550.471 749.018 550.695 747.985 551.129C746.952 551.563 746.016 552.2 745.232 553.001C744.447 553.802 743.83 554.751 743.416 555.794C743.002 556.837 742.799 557.952 742.82 559.074Z" fill="#2F2E41"/>
<path d="M809.812 351.516C809.812 351.516 811.849 358.321 800.301 364.446C788.753 370.57 785.356 393.708 798.942 400.513C812.529 407.318 816.605 416.164 809.812 422.289C803.018 428.414 790.791 444.746 807.094 448.829C823.398 452.912 825.436 461.078 820.681 464.481C815.925 467.883 831.55 458.356 831.55 458.356C831.55 458.356 834.267 474.688 848.533 470.605C862.798 466.522 877.032 392.302 861.13 373.186C846.344 355.411 809.812 351.516 809.812 351.516Z" fill="#2F2E41"/>
<path d="M805.472 344.511C805.475 334.542 835.25 341.705 848.017 355.625C856.857 365.265 870.284 379.767 859.032 389.99C847.781 400.213 878.319 413.613 886.509 417.676C894.699 421.739 910.869 434.164 896.268 442.5C881.667 450.835 881.903 459.249 887.398 461.241C892.893 463.233 875.283 458.279 875.283 458.279C875.283 458.279 877.062 474.741 862.226 474.662C847.389 474.583 804.825 392.904 814.993 370.2C824.448 349.09 805.472 344.511 805.472 344.511Z" fill="#2F2E41"/>
<path d="M811.922 342.326C772.104 339.925 768.108 369.949 768.108 369.949C768.383 387.324 795.928 378.858 803.578 381.448C812.807 374.797 830.598 362.213 843.321 353.232C834.084 346.716 823.203 342.937 811.922 342.326Z" fill="#2F2E41"/>
<path d="M800.578 533.918C800.578 533.918 764.861 366.233 541.306 244.591" stroke="white" stroke-width="2" stroke-miterlimit="10"/>
<path d="M550.517 240.933L550.964 242.772L541.922 244.969L544.77 253.843L542.972 254.421L539.504 243.611L550.517 240.933Z" fill="white"/>
<path d="M198.695 700.735L199.127 700.817L199.48 700.555L204.185 697.053C204.267 697.581 204.364 698.221 204.467 698.949C204.77 701.079 205.126 703.947 205.344 706.914C205.563 709.89 205.639 712.925 205.396 715.403C205.274 716.642 205.075 717.704 204.793 718.534C204.504 719.38 204.166 719.874 203.842 720.118C202.817 720.888 201.031 721.821 198.817 722.93C198.462 723.108 198.097 723.289 197.726 723.475C195.82 724.424 193.721 725.47 191.722 726.589C189.339 727.924 187.032 729.397 185.311 730.993C183.613 732.567 182.315 734.418 182.315 736.512C182.315 736.882 182.03 737.495 181.048 738.314C180.109 739.097 178.717 739.91 176.976 740.702C173.504 742.28 168.823 743.686 164.087 744.58C159.341 745.476 154.626 745.84 151.072 745.389C149.29 745.163 147.881 744.741 146.912 744.144C145.974 743.566 145.487 742.855 145.389 741.972C144.852 737.131 145.659 733.388 146.585 730.87C147.049 729.61 147.543 728.654 147.916 728.021C148.102 727.705 148.258 727.469 148.364 727.317C148.417 727.24 148.457 727.185 148.483 727.151C148.484 727.149 148.485 727.148 148.485 727.147L148.491 727.142L148.64 726.992C148.771 726.86 148.964 726.667 149.21 726.42C149.701 725.925 150.405 725.215 151.257 724.353C152.962 722.628 155.257 720.294 157.623 717.854C159.988 715.415 162.427 712.868 164.415 710.718C166.377 708.598 167.97 706.793 168.58 705.876C169.664 704.246 171.584 701.772 173.254 699.681C174.085 698.64 174.847 697.704 175.401 697.027C175.607 696.776 175.783 696.561 175.925 696.39L198.695 700.735Z" fill="white" stroke="black" stroke-width="2"/>
<path d="M175.531 548.258C174.556 548.481 174.556 548.481 174.556 548.481L174.556 548.482L174.557 548.484L174.559 548.494L174.568 548.534L174.604 548.691C174.636 548.829 174.683 549.034 174.744 549.302C174.867 549.836 175.048 550.62 175.28 551.617C175.744 553.611 176.411 556.459 177.224 559.873C178.851 566.701 181.066 575.797 183.414 584.868L183.415 584.87C184.572 589.295 185.752 593.713 186.922 597.865C186.922 597.865 186.922 597.865 186.923 597.865L187.885 597.594M175.531 548.258L194.732 620.13M175.531 548.258L174.556 548.481L174.53 548.367L174.531 548.25L175.635 418.808L116.091 411.216L114.827 414.008L114.827 414.009L111.703 420.881M175.531 548.258L111.703 420.881M187.885 597.594C190.854 608.165 193.69 616.954 195.547 619.55M187.885 597.594C186.718 593.45 185.539 589.039 184.382 584.617L187.885 597.594ZM195.547 619.55L194.732 620.13M195.547 619.55L194.733 620.132C194.733 620.131 194.733 620.131 194.732 620.13M195.547 619.55C198.29 623.397 198.867 634.836 199.416 645.707C199.98 656.87 200.514 667.434 203.33 668.563C208.89 670.791 207.778 686.386 206.666 688.614C206.241 689.467 205.978 690.646 205.628 692.215C205.065 694.744 204.277 698.283 202.218 703.095C198.883 710.892 169.971 698.639 171.083 694.183C171.917 690.841 168.998 687.5 166.079 684.158C165.106 683.044 164.133 681.93 163.299 680.816C159.963 676.36 152.179 660.765 153.291 656.31C153.37 655.576 153.359 654.835 153.258 654.104M194.732 620.13C195.317 620.951 195.837 622.267 196.279 624.045C196.716 625.803 197.058 627.927 197.333 630.3C197.871 634.926 198.147 640.399 198.419 645.775L198.44 646.195C198.717 651.682 198.997 657.055 199.56 661.196C199.841 663.263 200.199 665.077 200.684 666.466C200.926 667.162 201.213 667.789 201.564 668.298C201.914 668.806 202.367 669.254 202.958 669.491C203.954 669.89 204.79 670.953 205.414 672.665C206.028 674.349 206.366 676.471 206.502 678.65C206.638 680.821 206.57 682.996 206.401 684.758C206.316 685.64 206.207 686.407 206.089 687.012C205.965 687.644 205.846 688.018 205.772 688.167C205.441 688.83 205.211 689.617 205 690.482C204.89 690.933 204.773 691.455 204.648 692.016C204.54 692.5 204.426 693.014 204.303 693.537C203.756 695.866 202.938 698.871 201.299 702.701C201.018 703.359 200.456 703.859 199.536 704.193C198.596 704.535 197.341 704.677 195.828 704.619C192.807 704.503 189.021 703.597 185.315 702.291C181.617 700.987 178.074 699.312 175.545 697.707C174.275 696.902 173.305 696.141 172.699 695.486C172.395 695.158 172.215 694.89 172.123 694.689C172.078 694.591 172.061 694.522 172.055 694.48C172.052 694.459 172.052 694.445 172.052 694.438C172.052 694.433 172.052 694.43 172.053 694.428C172.053 694.426 172.053 694.426 172.053 694.425C172.729 691.717 171.344 689.15 169.66 686.9C168.803 685.756 167.809 684.618 166.845 683.515L166.832 683.5C165.854 682.38 164.907 681.295 164.1 680.217C162.497 678.076 159.753 673.142 157.541 668.157C156.439 665.674 155.486 663.212 154.877 661.114C154.573 660.064 154.361 659.124 154.257 658.329C154.151 657.519 154.167 656.932 154.262 656.552L154.278 656.485L154.286 656.416C154.372 655.609 154.36 654.795 154.252 653.991M153.258 654.104L154.254 654.013C154.253 654.006 154.253 653.998 154.252 653.991M153.258 654.104C152.969 650.94 151.99 644.903 150.556 637.395L154.252 653.991M153.258 654.104L154.249 653.968C154.25 653.975 154.251 653.983 154.252 653.991M111.703 420.881L111.702 420.882L111.703 420.881Z" fill="black" stroke="white" stroke-width="2"/>
<path d="M105.529 636.637C105.533 636.64 105.536 636.643 105.539 636.646L102.258 666.225L102.197 666.777L102.634 667.121L103.252 666.335L102.634 667.121L102.634 667.121L102.636 667.123L102.644 667.129L102.677 667.155L102.805 667.256C102.918 667.346 103.084 667.478 103.295 667.648C103.718 667.987 104.323 668.476 105.049 669.074C106.502 670.27 108.437 671.896 110.369 673.625C112.306 675.357 114.221 677.174 115.645 678.753C116.358 679.544 116.928 680.253 117.313 680.845C117.721 681.473 117.816 681.814 117.82 681.924C117.819 681.927 117.815 681.972 117.788 682.072C117.756 682.189 117.704 682.345 117.626 682.543C117.471 682.941 117.235 683.455 116.921 684.081C116.294 685.331 115.389 686.96 114.289 688.861C112.497 691.956 110.21 695.731 107.807 699.7C107.259 700.604 106.705 701.519 106.15 702.438C103.162 707.38 100.129 712.442 97.7736 716.69C96.5959 718.814 95.5802 720.746 94.8214 722.366C94.0765 723.957 93.5339 725.338 93.3701 726.323C92.8998 729.15 89.9714 732.015 85.4866 733.921C81.0689 735.799 75.4354 736.603 70.0895 735.532C69.0288 735.319 68.1865 734.676 67.5257 733.573C66.8499 732.444 66.3853 730.861 66.1422 728.889C65.6566 724.947 66.0885 719.737 67.1226 714.281C68.154 708.839 69.7706 703.224 71.607 698.496C73.46 693.726 75.4841 689.998 77.2726 688.206C79.3924 686.082 81.1897 682.267 82.7722 677.79C84.3705 673.268 85.8047 667.903 87.1267 662.536C87.7373 660.057 88.3202 657.594 88.885 655.208C89.552 652.39 90.1938 649.678 90.8261 647.173C91.9948 642.542 93.0838 638.82 94.1393 636.705C95.1571 634.666 96.3515 633.784 97.4812 633.461C98.6463 633.127 99.9337 633.333 101.212 633.845C102.485 634.355 103.654 635.132 104.518 635.798C104.947 636.128 105.293 636.425 105.529 636.637Z" fill="white" stroke="black" stroke-width="2"/>
<path d="M172.083 441.321V440.584L171.379 440.366L110.974 421.663C111 421.285 111.035 420.779 111.08 420.159C111.186 418.701 111.347 416.617 111.563 414.116C111.997 409.113 112.656 402.446 113.556 395.784C114.458 389.112 115.598 382.484 116.986 377.541C117.682 375.061 118.424 373.065 119.199 371.71C119.587 371.032 119.956 370.562 120.291 370.272C120.619 369.988 120.865 369.916 121.044 369.916C122.099 369.916 124.629 369.624 128.163 369.161C131.254 368.756 135.181 368.208 139.705 367.578C140.408 367.48 141.126 367.38 141.858 367.278C152.734 365.764 166.623 363.851 180.648 362.251C194.678 360.651 208.82 359.367 220.207 359.107C225.902 358.977 230.879 359.104 234.796 359.568C236.753 359.8 238.424 360.114 239.775 360.513C240.858 360.833 241.695 361.196 242.304 361.586L242.205 362.474C242.098 363.432 241.941 364.837 241.74 366.631C241.338 370.218 240.761 375.357 240.057 381.561C238.65 393.97 236.739 410.642 234.724 427.697C232.708 444.753 230.589 462.188 228.766 476.123C226.936 490.107 225.416 500.459 224.605 503.438C222.953 509.507 217.69 524.221 212.129 538.425C209.352 545.519 206.508 552.467 204.014 558.124C201.503 563.819 199.388 568.106 198.068 569.956C195.886 573.017 189.184 584.47 181.564 597.489C179.36 601.256 177.079 605.154 174.808 609.018C169.735 617.65 164.701 626.136 160.659 632.669C158.638 635.937 156.87 638.708 155.473 640.761C154.773 641.788 154.174 642.626 153.686 643.253C153.176 643.908 152.849 644.251 152.691 644.371C150.414 646.082 147.038 649.184 144.262 651.826C142.867 653.153 141.612 654.375 140.706 655.265C140.253 655.711 139.887 656.073 139.634 656.324C139.507 656.45 139.409 656.548 139.342 656.615L139.266 656.691L139.247 656.71L139.242 656.715L139.24 656.716L139.24 656.717C139.24 656.717 139.24 656.717 139.298 656.775C139.373 656.85 139.547 657.024 139.948 657.423C139.24 656.717 139.24 656.717 139.24 656.717L139.239 656.718L139.237 656.72L139.228 656.729L139.192 656.765L139.051 656.906C138.928 657.03 138.748 657.211 138.517 657.443C138.056 657.907 137.395 658.574 136.595 659.384C134.995 661.004 132.838 663.199 130.611 665.5C128.385 667.8 126.085 670.208 124.201 672.254C122.341 674.272 120.82 676.005 120.212 676.92C120.198 676.941 120.064 677.107 119.451 677.134C118.867 677.16 118.055 677.045 117.051 676.771C115.054 676.225 112.527 675.117 110.002 673.681C107.479 672.247 105.01 670.515 103.117 668.753C101.181 666.951 100.011 665.266 99.7909 663.943C99.2604 660.754 99.5204 656.421 100.074 652.264C100.624 648.13 101.45 644.269 101.999 642.071C102.316 640.799 102.306 639.417 102.199 638.076C102.136 637.282 102.029 636.427 101.926 635.6C101.86 635.07 101.796 634.55 101.745 634.066C101.463 631.383 101.552 629.352 102.848 628.054L102.851 628.051C104.523 626.376 109.554 621.337 114.171 615.73C116.48 612.926 118.704 609.958 120.357 607.181C121.984 604.447 123.156 601.739 123.156 599.499C123.156 598.74 123.533 597.337 124.347 595.317C125.143 593.344 126.3 590.913 127.734 588.16C130.601 582.658 134.548 575.93 138.847 569.121C143.146 562.315 147.789 555.442 152.047 549.651C156.319 543.84 160.159 539.18 162.857 536.748C168.652 531.523 170.94 524.585 171.793 519.03C172.221 516.246 172.292 513.785 172.257 512.018C172.239 511.134 172.194 510.421 172.154 509.927C172.133 509.679 172.114 509.486 172.099 509.353C172.096 509.322 172.093 509.294 172.09 509.269C172.087 509.246 172.085 509.226 172.083 509.209V441.321Z" fill="black" stroke="white" stroke-width="2"/>
<path d="M153.291 175.092C173.558 175.092 189.987 158.634 189.987 138.332C189.987 118.031 173.558 101.573 153.291 101.573C133.025 101.573 116.596 118.031 116.596 138.332C116.596 158.634 133.025 175.092 153.291 175.092Z" fill="white"/>
<path d="M165.523 167.294C165.523 167.294 169.971 184.003 175.531 188.459C181.091 192.915 161.075 211.852 161.075 211.852L123.268 214.08L116.596 192.915C116.596 192.915 128.828 168.408 125.492 152.813C122.156 137.218 165.523 167.294 165.523 167.294Z" fill="white"/>
<path d="M125.155 257.591L125.167 257.055L124.994 256.549L113.022 221.661C113.035 221.594 113.049 221.522 113.064 221.447C113.188 220.812 113.369 219.902 113.593 218.805C114.042 216.61 114.662 213.679 115.348 210.72C116.039 207.747 116.784 204.803 117.48 202.559C117.792 201.556 118.075 200.756 118.317 200.18C118.464 200.196 118.634 200.218 118.829 200.248C119.892 200.413 121.317 200.757 123.209 201.249C123.705 201.378 124.227 201.515 124.774 201.659C128.309 202.589 132.884 203.792 138.298 204.778C145.315 206.056 152.949 203.812 158.864 201.066C161.871 199.67 164.561 198.085 166.671 196.608C168.664 195.212 170.465 193.689 171.357 192.349C171.441 192.222 171.856 191.814 172.96 191.307C173.977 190.841 175.24 190.441 176.538 190.116C177.796 189.801 179.005 189.576 179.917 189.428L205.073 217.779L215.993 257.158L233.752 331.657L233.786 331.846C233.818 332.024 233.865 332.287 233.924 332.625C234.042 333.301 234.21 334.276 234.408 335.468C234.805 337.853 235.322 341.098 235.804 344.546C236.286 348 236.729 351.625 236.983 354.78C237.245 358.036 237.276 360.478 237.066 361.74C237.01 362.077 236.593 362.927 234.704 364.068C232.925 365.143 230.396 366.135 227.377 367.009C221.369 368.747 214.064 369.838 208.591 370.386C205.808 370.665 201.726 371.457 196.972 372.378C196.68 372.435 196.385 372.492 196.088 372.55C190.877 373.559 184.752 374.73 178.155 375.694C164.906 377.63 150.04 378.679 137.225 376.004C130.453 374.591 125.621 374.056 122.175 374.114C121.642 374.123 121.126 374.146 120.63 374.185L122.909 355.92L122.928 355.769L122.931 355.617L125.155 257.591ZM118.652 199.491C118.679 199.451 118.677 199.462 118.644 199.505C118.647 199.5 118.65 199.495 118.652 199.491ZM117.656 200.156C117.649 200.158 117.645 200.158 117.645 200.158C117.645 200.158 117.649 200.157 117.656 200.156Z" fill="white" stroke="black" stroke-width="6"/>
<path d="M238.096 313.955C238.121 313.991 238.145 314.026 238.168 314.059L245.862 347.091L245.883 347.181L245.912 347.269L247.81 346.637C245.912 347.269 245.912 347.269 245.912 347.269L245.913 347.271L245.915 347.279L245.926 347.313L245.971 347.447C246.01 347.565 246.068 347.742 246.144 347.974C246.296 348.436 246.517 349.116 246.796 349.983C247.354 351.716 248.142 354.197 249.06 357.181C250.897 363.152 253.25 371.127 255.325 379.163C257.405 387.218 259.183 395.256 259.896 401.381C260.256 404.465 260.327 406.925 260.089 408.617C259.97 409.467 259.791 409.985 259.631 410.265C259.579 410.357 259.541 410.405 259.519 410.428C255.37 411.461 251.449 411.469 248.108 411.201C246.517 411.073 245.075 410.885 243.782 410.717L243.568 410.689C242.668 410.572 241.786 410.458 240.999 410.4C240.966 410.292 240.929 410.164 240.891 410.016C240.621 408.975 240.368 407.392 240.117 405.33C239.827 402.946 239.558 400.1 239.261 396.953C239.043 394.641 238.809 392.167 238.54 389.594C237.913 383.591 237.105 377.166 235.882 371.521C234.678 365.962 233.006 360.82 230.469 357.642C226.173 352.263 220.975 342.699 216.523 333.641C212.094 324.629 208.502 316.322 207.412 313.592C206.321 310.86 198.83 290.296 191.743 269.276C188.202 258.773 184.772 248.187 182.299 239.681C181.062 235.425 180.072 231.717 179.427 228.813C179.105 227.359 178.875 226.133 178.742 225.155C178.603 224.136 178.592 223.527 178.628 223.239C178.94 220.738 178.665 216.786 178.15 212.465C177.626 208.077 176.825 203.09 175.994 198.406C175.162 193.718 174.295 189.313 173.637 186.081C173.322 184.533 173.055 183.254 172.861 182.34C172.868 182.337 172.874 182.334 172.88 182.332C173.754 181.958 174.929 181.514 176.178 181.202C177.447 180.885 178.671 180.734 179.684 180.853C180.664 180.968 181.3 181.308 181.714 181.86C182.155 182.45 182.779 182.897 183.35 183.239C183.955 183.6 184.675 183.943 185.461 184.272C187.035 184.929 189.04 185.592 191.281 186.253C195.768 187.575 201.415 188.944 206.893 190.264C207.128 190.321 207.363 190.378 207.597 190.434C212.857 191.701 217.904 192.916 221.693 194.017C223.682 194.595 225.242 195.118 226.278 195.574C226.564 195.7 226.781 195.808 226.94 195.897C226.997 196.8 227.123 198.338 227.291 200.308C227.514 202.921 227.823 206.426 228.188 210.55L228.269 211.471C229.068 220.522 230.11 232.351 231.082 244.318C232.055 256.288 232.957 268.38 233.476 277.96C233.736 282.753 233.9 286.896 233.93 290.072C233.945 291.661 233.926 292.987 233.872 294.019C233.815 295.102 233.726 295.712 233.654 295.962C232.352 300.529 233.68 305.236 235.133 308.585C235.875 310.295 236.689 311.739 237.316 312.755C237.631 313.265 237.901 313.672 238.096 313.955ZM259.498 410.446C259.497 410.446 259.501 410.441 259.511 410.436C259.503 410.443 259.499 410.446 259.498 410.446ZM227.294 196.133C227.291 196.133 227.273 196.118 227.245 196.089C227.282 196.118 227.296 196.133 227.294 196.133Z" fill="black" stroke="white" stroke-width="4"/>
<path d="M109.924 257.523L111.884 257.125L111.734 256.386L111.134 255.93L109.924 257.523ZM109.924 257.523C111.884 257.125 111.884 257.125 111.884 257.126L111.885 257.128L111.887 257.138L111.894 257.175L111.923 257.319C111.949 257.446 111.986 257.634 112.035 257.879C112.131 258.369 112.272 259.09 112.449 260.015C112.802 261.864 113.299 264.527 113.875 267.793C115.025 274.322 116.489 283.264 117.745 292.91C119.001 302.55 120.051 312.924 120.367 322.307C120.681 331.63 120.28 340.194 118.512 346.097C115.208 357.129 111.055 375.979 108.283 392.5C106.897 400.759 105.866 408.381 105.456 414.12C105.25 416.999 105.205 419.336 105.333 421.016C105.398 421.861 105.501 422.464 105.615 422.858C105.652 422.982 105.683 423.064 105.705 423.115C107.558 424.441 110.667 425.416 113.351 425.538C114.727 425.601 115.749 425.426 116.342 425.149C116.82 424.926 116.82 424.771 116.82 424.617V424.612C116.82 423.331 117.263 419.342 117.967 414.128C118.683 408.832 119.694 402.09 120.88 395.173C122.065 388.26 123.428 381.149 124.848 375.123C126.248 369.184 127.759 364.046 129.303 361.262C130.569 358.979 132.6 353.341 134.849 345.674C137.075 338.085 139.46 328.703 141.465 319.077C143.471 309.446 145.087 299.612 145.79 291.107C146.502 282.497 146.243 275.589 144.746 271.591C141.361 262.548 135.772 241.255 131.057 222.361C128.692 212.884 126.536 203.966 124.971 197.418C124.189 194.143 123.554 191.461 123.115 189.597C122.997 189.096 122.893 188.654 122.804 188.275C122.019 188.312 121.032 188.378 120.027 188.496C118.896 188.629 117.823 188.82 117.008 189.078C116.601 189.207 116.326 189.332 116.163 189.431C116.136 189.448 116.115 189.461 116.099 189.473C115.685 190.247 114.706 191.654 113.533 193.248C112.246 194.996 110.595 197.142 108.841 199.321C107.088 201.498 105.221 203.723 103.502 205.622C101.811 207.49 100.172 209.148 98.8938 210.109C96.7797 211.697 91.8524 216.077 87.4322 220.505C85.2287 222.712 83.1976 224.886 81.7304 226.69C80.9938 227.595 80.4339 228.366 80.0685 228.973C79.9322 229.2 79.8352 229.384 79.7691 229.527C79.9321 229.765 80.1886 230.088 80.556 230.5C81.3703 231.415 82.5716 232.592 84.066 233.96C87.0446 236.687 91.0388 240.034 95.0611 243.299C99.0772 246.559 103.096 249.718 106.113 252.062C107.621 253.234 108.877 254.202 109.756 254.877C110.196 255.214 110.541 255.478 110.776 255.657L111.044 255.861L111.112 255.913L111.129 255.926L111.133 255.929L111.134 255.93C111.134 255.93 111.134 255.93 109.924 257.523ZM116.058 189.505C116.058 189.505 116.059 189.504 116.061 189.501C116.059 189.504 116.058 189.505 116.058 189.505ZM79.6042 229.254C79.6047 229.254 79.6081 229.261 79.6133 229.274C79.6064 229.26 79.6038 229.253 79.6042 229.254Z" fill="black" stroke="white" stroke-width="4"/>
<path d="M271.161 296.51C271.161 296.51 272.273 331.042 260.041 348.865C247.81 366.688 240.026 386.739 240.026 386.739C240.026 386.739 220.01 381.169 216.674 374.485C213.338 367.802 192.211 373.371 192.211 371.144C192.211 368.916 217.786 357.776 220.01 355.549C222.234 353.321 230.018 353.321 234.466 348.865C238.914 344.409 240.026 334.384 240.026 334.384L244.474 305.422L271.161 296.51Z" fill="white"/>
<path d="M178.565 115.667C181.388 115.41 184.3 115.128 186.795 113.78C192.385 110.76 193.867 102.159 189.612 97.4358C188.438 96.234 187.126 95.1769 185.702 94.2868L177.25 88.5235C173.511 85.9745 169.685 83.3838 165.325 82.1821C161.381 81.0953 157.216 81.207 153.133 81.4612C145.209 81.9546 137.235 82.9738 129.781 85.7148C122.327 88.4557 115.374 93.0412 110.86 99.5846C103.703 109.958 103.605 123.948 107.546 135.923C111.488 147.899 118.976 158.327 126.353 168.544L130.181 149.833C130.522 148.166 130.963 146.34 132.347 145.353C135.786 142.902 139.992 147.935 144.213 147.903C146.925 147.882 149.202 145.647 150.229 143.133C151.257 140.619 151.325 137.835 151.563 135.128C152.066 129.396 154.066 121.42 159.485 118.259C164.535 115.313 172.889 116.183 178.565 115.667Z" fill="#2F2E41"/>
<path opacity="0.1" d="M176.507 423.283C176.507 423.283 172.751 532.106 170.527 535.448C168.303 538.79 170.527 422.941 170.527 422.941L176.507 423.283Z" fill="black"/>
<path d="M260.476 262.872L262.265 261.978C260.476 262.872 260.475 262.871 260.475 262.871L260.475 262.869L260.473 262.866L260.469 262.857L260.455 262.83C260.444 262.808 260.429 262.777 260.411 262.738C260.374 262.66 260.322 262.55 260.26 262.412C260.135 262.135 259.965 261.743 259.777 261.263C259.404 260.31 258.948 258.981 258.64 257.516C258.336 256.069 258.152 254.374 258.414 252.734C258.655 251.224 259.291 249.686 260.608 248.501C260.566 248.2 260.453 247.737 260.223 247.087C259.672 245.526 258.625 243.367 257.179 240.755C254.304 235.56 250.034 228.9 245.594 222.297C241.161 215.705 236.586 209.212 233.117 204.365C231.383 201.942 229.927 199.932 228.905 198.528C228.494 197.964 228.154 197.498 227.893 197.143H222.175L229.773 293.103L242.046 308.624C246.23 302.98 253.18 300.851 258.948 300.097C262.296 299.659 265.409 299.661 267.677 299.769C268.611 299.813 269.406 299.876 270.023 299.935C270.063 299.861 270.105 299.784 270.148 299.704C270.628 298.812 271.306 297.596 272.095 296.304C272.88 295.017 273.791 293.627 274.738 292.4C275.573 291.316 276.529 290.237 277.531 289.491C277.531 289.491 277.531 289.49 277.531 289.49C277.492 289.344 277.425 289.154 277.317 288.918C276.863 287.925 275.934 286.634 274.779 285.273C273.651 283.943 272.411 282.666 271.443 281.714C270.962 281.24 270.553 280.852 270.266 280.583C270.122 280.448 270.009 280.344 269.933 280.274C269.895 280.239 269.866 280.213 269.847 280.196L269.827 280.177L269.822 280.173L269.822 280.173L260.476 262.872ZM260.476 262.872L260.487 262.895L260.5 262.918L269.396 279.627L269.561 279.938L269.822 280.173L260.476 262.872ZM260.627 248.806C260.626 248.805 260.626 248.793 260.629 248.773C260.629 248.796 260.627 248.807 260.627 248.806Z" fill="black" stroke="white" stroke-width="4"/>
<path d="M223.154 211.624L192.629 224.252L216.119 281.236L246.644 268.609L223.154 211.624Z" fill="#2F2E41"/>
<path d="M219.576 245.046C222.948 243.651 224.645 240.005 223.366 236.902C222.087 233.8 218.316 232.415 214.945 233.81C211.573 235.204 209.876 238.85 211.155 241.953C212.435 245.056 216.205 246.441 219.576 245.046Z" fill="#7BFED0"/>
<path d="M197.771 284.257C197.771 284.257 117.708 351.093 104.364 329.928C91.0206 308.763 118.82 290.941 118.82 290.941C118.82 290.941 143.284 292.055 171.083 274.232L198.883 261.978C198.883 261.978 224.261 225.682 232.91 239.503C241.558 253.325 218.147 277.38 197.771 284.257Z" fill="white"/>
<path d="M79.3419 264.2L79.6769 263.697V263.092V231.075L90.2615 227.219H100.758C100.911 227.625 101.098 228.122 101.315 228.699C101.979 230.464 102.926 232.986 104.054 236.013C106.312 242.066 109.297 250.135 112.213 258.203C115.131 266.275 117.972 274.327 119.942 280.353C120.93 283.374 121.687 285.848 122.126 287.551C122.263 288.079 122.361 288.503 122.426 288.83C122.357 288.909 122.294 288.987 122.237 289.059C121.91 289.479 121.57 290.024 121.234 290.62C120.55 291.83 119.727 293.515 118.825 295.488C117.016 299.447 114.813 304.738 112.655 310.106C109.137 318.862 105.697 327.928 104.24 331.904C103.907 331.625 103.521 331.279 103.084 330.863C101.129 329.005 98.5772 326.18 96.0127 323.195C93.4599 320.223 90.9375 317.142 89.0507 314.801C88.108 313.632 87.3255 312.648 86.779 311.958C86.5779 311.704 86.4087 311.49 86.2754 311.321C85.791 306.533 86.1679 301.695 87.3899 297.038C88.0013 294.885 88.0908 293.041 87.5399 291.465C86.971 289.836 85.8362 288.823 84.7033 288.124C83.9088 287.634 82.9556 287.215 82.149 286.86C81.8983 286.75 81.6619 286.646 81.4487 286.548C80.4352 286.082 79.664 285.645 79.0923 285.072C78.6073 284.586 78.0297 283.508 77.4722 281.833C76.9397 280.232 76.5077 278.348 76.1686 276.514C75.8311 274.688 75.5937 272.957 75.4406 271.679C75.3732 271.117 75.3225 270.644 75.2869 270.294L79.3419 264.2ZM105.407 332.735C105.407 332.736 105.402 332.734 105.393 332.73C105.402 332.733 105.407 332.735 105.407 332.735Z" fill="black" stroke="white" stroke-width="4"/>
<path d="M236.134 393.979C236.134 393.979 247.631 382.84 241.883 382.283C236.134 381.726 216.118 370.587 212.782 376.156C209.446 381.726 236.134 393.979 236.134 393.979Z" fill="#232323"/>
<path d="M454.808 181.487C463.667 181.487 470.849 177.678 470.849 172.979C470.849 168.281 463.667 164.472 454.808 164.472C445.949 164.472 438.767 168.281 438.767 172.979C438.767 177.678 445.949 181.487 454.808 181.487Z" fill="#7BFED0"/>
<path d="M516.141 201.337C479.97 187.652 443.8 187.652 407.629 201.337V156.91C443.012 146.215 480.758 146.215 516.141 156.91V201.337Z" stroke="white" stroke-width="2" stroke-miterlimit="10"/>
<path d="M501.044 192.149C474.938 182.272 448.832 182.272 422.726 192.149V160.085C448.263 152.365 475.507 152.365 501.044 160.085V192.149Z" stroke="white" stroke-width="2" stroke-miterlimit="10"/>
<path d="M460.47 177.706C469.329 177.706 476.51 173.897 476.51 169.198C476.51 164.5 469.329 160.691 460.47 160.691C451.61 160.691 444.429 164.5 444.429 169.198C444.429 173.897 451.61 177.706 460.47 177.706Z" stroke="#3F3D56" stroke-width="2" stroke-miterlimit="10"/>
<path d="M466.603 234.764C475.283 232.989 481.559 227.818 480.622 223.215C479.684 218.612 471.887 216.318 463.206 218.093C454.526 219.868 448.25 225.038 449.188 229.642C450.126 234.245 457.923 236.538 466.603 234.764Z" fill="#7BFED0"/>
<path d="M530.66 241.926C492.488 235.764 457.047 243.01 424.339 263.664L415.471 220.135C448.004 202.567 484.988 195.006 521.791 198.397L530.66 241.926Z" stroke="white" stroke-width="2" stroke-miterlimit="10"/>
<path d="M514.033 235.949C486.483 231.501 460.904 236.73 437.297 251.638L430.897 220.221C454.377 207.542 481.07 202.084 507.632 204.532L514.033 235.949Z" stroke="white" stroke-width="2" stroke-miterlimit="10"/>
<path d="M471.395 229.925C480.075 228.15 486.352 222.98 485.414 218.376C484.476 213.773 476.679 211.48 467.999 213.254C459.318 215.029 453.042 220.2 453.98 224.803C454.918 229.407 462.715 231.7 471.395 229.925Z" stroke="#3F3D56" stroke-width="2" stroke-miterlimit="10"/>
<path d="M477.58 280.42C477.906 275.733 471.005 271.434 462.167 270.818C453.33 270.202 445.901 273.502 445.576 278.189C445.25 282.876 452.151 287.175 460.988 287.791C469.826 288.407 477.255 285.107 477.58 280.42Z" fill="#7BFED0"/>
<path d="M520.798 311.859C485.663 295.691 449.579 293.176 412.547 304.313L415.626 259.993C451.665 251.784 489.32 254.409 523.877 267.539L520.798 311.859Z" stroke="white" stroke-width="2" stroke-miterlimit="10"/>
<path d="M506.374 301.643C481.015 289.975 454.972 288.159 428.245 296.197L430.467 264.21C456.478 258.285 483.655 260.18 508.596 269.656L506.374 301.643Z" stroke="white" stroke-width="2" stroke-miterlimit="10"/>
<path d="M483.49 277.042C483.816 272.355 476.915 268.056 468.077 267.44C459.24 266.824 451.811 270.124 451.486 274.811C451.16 279.498 458.061 283.797 466.898 284.413C475.736 285.029 483.164 281.729 483.49 277.042Z" stroke="#3F3D56" stroke-width="2" stroke-miterlimit="10"/>
<path d="M391.514 202.368C391.514 202.368 322.164 192.864 272.639 221.938" stroke="white" stroke-width="2" stroke-miterlimit="10"/>
<path d="M274.308 212.168L276.109 212.739L273.293 221.623L282.346 223.787L281.905 225.627L270.882 222.989L274.308 212.168Z" fill="white"/>
</svg>
